{
    "asset" : {
        "generator" : "Khronos glTF Blender I/O v1.7.33",
        "version" : "2.0"
    },
    "scene" : 0,
    "scenes" : [
        {
            "name" : "Scene",
            "nodes" : [
                0
            ]
        }
    ],
    "nodes" : [
        {
            "mesh" : 0,
            "name" : "arrow",
            "rotation" : [
                0.0026363839861005545,
                0.6971686482429504,
                -0.7168958783149719,
                0.003034485736861825
            ],
            "scale" : [
                0.006086281500756741,
                0.007969026453793049,
                0.0060862586833536625
            ],
            "translation" : [
                0.005291590467095375,
                -0.02097126841545105,
                0.05735999345779419
            ]
        }
    ],
    "materials" : [
        {
            "doubleSided" : true,
            "name" : "Grip",
            "pbrMetallicRoughness" : {
                "baseColorFactor" : [
                    0.010022825561463833,
                    0.010022825561463833,
                    0.010022825561463833,
                    1
                ],
                "metallicFactor" : 0,
                "roughnessFactor" : 0.4000000059604645
            }
        },
        {
            "doubleSided" : true,
            "name" : "yellow",
            "pbrMetallicRoughness" : {
                "baseColorFactor" : [
                    0.8999999761581421,
                    0.8999999761581421,
                    0.03571431711316109,
                    1
                ],
                "metallicFactor" : 0,
                "roughnessFactor" : 0.9576271176338196
            }
        }
    ],
    "meshes" : [
        {
            "name" : "Cylinder.014",
            "primitives" : [
                {
                    "attributes" : {
                        "POSITION" : 0,
                        "NORMAL" : 1,
                        "TEXCOORD_0" : 2
                    },
                    "indices" : 3,
                    "material" : 0
                },
                {
                    "attributes" : {
                        "POSITION" : 4,
                        "NORMAL" : 5,
                        "TEXCOORD_0" : 6
                    },
                    "indices" : 7,
                    "material" : 1
                }
            ]
        }
    ],
    "accessors" : [
        {
            "bufferView" : 0,
            "componentType" : 5126,
            "count" : 696,
            "max" : [
                0.8486344218254089,
                4.184452533721924,
                0.9263623952865601
            ],
            "min" : [
                -0.8486356139183044,
                -114.14427185058594,
                -0.7709074020385742
            ],
            "type" : "VEC3"
        },
        {
            "bufferView" : 1,
            "componentType" : 5126,
            "count" : 696,
            "type" : "VEC3"
        },
        {
            "bufferView" : 2,
            "componentType" : 5126,
            "count" : 696,
            "type" : "VEC2"
        },
        {
            "bufferView" : 3,
            "componentType" : 5123,
            "count" : 3072,
            "type" : "SCALAR"
        },
        {
            "bufferView" : 4,
            "componentType" : 5126,
            "count" : 609,
            "max" : [
                3.2847745418548584,
                -94.251220703125,
                3.4110350608825684
            ],
            "min" : [
                -3.331744432449341,
                -105.76524353027344,
                -3.205489158630371
            ],
            "type" : "VEC3"
        },
        {
            "bufferView" : 5,
            "componentType" : 5126,
            "count" : 609,
            "type" : "VEC3"
        },
        {
            "bufferView" : 6,
            "componentType" : 5126,
            "count" : 609,
            "type" : "VEC2"
        },
        {
            "bufferView" : 7,
            "componentType" : 5123,
            "count" : 2220,
            "type" : "SCALAR"
        }
    ],
    "bufferViews" : [
        {
            "buffer" : 0,
            "byteLength" : 8352,
            "byteOffset" : 0
        },
        {
            "buffer" : 0,
            "byteLength" : 8352,
            "byteOffset" : 8352
        },
        {
            "buffer" : 0,
            "byteLength" : 5568,
            "byteOffset" : 16704
        },
        {
            "buffer" : 0,
            "byteLength" : 6144,
            "byteOffset" : 22272
        },
        {
            "buffer" : 0,
            "byteLength" : 7308,
            "byteOffset" : 28416
        },
        {
            "buffer" : 0,
            "byteLength" : 7308,
            "byteOffset" : 35724
        },
        {
            "buffer" : 0,
            "byteLength" : 4872,
            "byteOffset" : 43032
        },
        {
            "buffer" : 0,
            "byteLength" : 4440,
            "byteOffset" : 47904
        }
    ],
    "buffers" : [
        {
            "byteLength" : 52344,
            "uri" : "data:application/octet-stream;base64,"
        }
    ]
}
